<?xml version="1.0" encoding="UTF-8"?>
<svg width="24px" height="24px" viewBox="0 0 24 24" version="1.1" xmlns="http://www.w3.org/2000/svg" xmlns:xlink="http://www.w3.org/1999/xlink">
    <!-- Generator: Sketch 63.1 (92452) - https://sketch.com -->
    <title>info-button</title>
    <desc>Created with Sketch.</desc>
    <g id="Page-1" stroke="none" stroke-width="1" fill="none" fill-rule="evenodd">
        <g id="03A-Flujo-TC" transform="translate(-439.000000, -548.000000)" fill="#53677A" fill-rule="nonzero">
            <g id="info-button" transform="translate(439.000000, 548.000000)">
                <path d="M20.4858531,3.5145382 C15.7995413,-1.17125186 8.20137175,-1.1717736 3.5145382,3.5145382 C-1.1717736,8.20085001 -1.17125186,15.7990196 3.5145382,20.4858531 C8.20085001,25.1711214 15.7990196,25.1716432 20.4858531,20.4858531 C25.1716432,15.7990196 25.1711214,8.20137175 20.4858531,3.5145382 Z M13.5649083,17.2176437 C13.5649083,18.0821748 12.864205,18.7828781 11.9996739,18.7828781 C11.1351428,18.7828781 10.4344395,18.0821748 10.4344395,17.2176437 L10.4344395,10.9567061 C10.4344395,10.0921749 11.1351428,9.39147165 11.9996739,9.39147165 C12.864205,9.39147165 13.5649083,10.0921749 13.5649083,10.9567061 L13.5649083,17.2176437 Z M11.9720214,8.28119871 C11.0704464,8.28119871 10.4693964,7.64258307 10.4881792,6.85422668 C10.4693964,6.02778291 11.0704464,5.40847183 11.9902825,5.40847183 C12.9106403,5.40847183 13.4929075,6.02830466 13.5122121,6.85422668 C13.5116903,7.64258307 12.9111621,8.28119871 11.9720214,8.28119871 Z" id="Shape"></path>
            </g>
        </g>
    </g>
</svg>