<?xml version="1.0" encoding="UTF-8"?>
<svg width="22px" height="22px" viewBox="0 0 22 22" version="1.1" xmlns="http://www.w3.org/2000/svg" xmlns:xlink="http://www.w3.org/1999/xlink">
    <!-- Generator: Sketch 63.1 (92452) - https://sketch.com -->
    <title>Group 8</title>
    <desc>Created with Sketch.</desc>
    <g id="Page-1" stroke="none" stroke-width="1" fill="none" fill-rule="evenodd">
        <g id="04C-Mensajería-Error" transform="translate(-487.000000, -745.000000)" fill="#FFFFFF" fill-rule="nonzero">
            <g id="Group-11" transform="translate(487.000000, 745.000000)">
                <g id="Group-8">
                    <path d="M21.4360073,17.8064688 L4.19447648,0.563994103 C3.44252551,-0.187998034 2.22342506,-0.187998034 1.47264899,0.563994103 L0.563963228,1.4713196 C-0.187987743,2.22354672 -0.187987743,3.44271403 0.563963228,4.19353114 L17.805494,21.4360059 C18.55768,22.187998 19.7767805,22.187998 20.5275565,21.4360059 L21.4348324,20.5286803 C22.1881933,19.7778632 22.1881933,18.5584609 21.4360073,17.8064688 L21.4360073,17.8064688 Z" id="Path"></path>
                    <path d="M17.8053752,0.563822496 L0.563959465,17.8064352 C-0.187986488,18.5584334 -0.187986488,19.7778454 0.563959465,20.5286686 L1.47122924,21.4360014 C2.22341022,22.1879995 3.44250254,22.1879995 4.19327359,21.4360014 L21.4358643,4.19456363 C22.1880452,3.44256547 22.1880452,2.2233884 21.4358643,1.47256528 L20.5285945,0.565232462 C19.7766485,-0.188175661 18.5575562,-0.188175661 17.8053752,0.563822496 Z" id="Path"></path>
                </g>
            </g>
        </g>
    </g>
</svg>