<?xml version="1.0" encoding="UTF-8"?>
<svg width="19px" height="15px" viewBox="0 0 19 15" version="1.1" xmlns="http://www.w3.org/2000/svg" xmlns:xlink="http://www.w3.org/1999/xlink">
    <!-- Generator: Sketch 63.1 (92452) - https://sketch.com -->
    <title>Path 2</title>
    <desc>Created with Sketch.</desc>
    <g id="Page-1" stroke="none" stroke-width="1" fill="none" fill-rule="evenodd">
        <g id="04C-Mensajería-Éxito" transform="translate(-472.000000, -749.000000)" fill="#FFFFFF" fill-rule="nonzero">
            <g id="Group-8" transform="translate(408.000000, 726.000000)">
                <g id="Group-9" transform="translate(64.000000, 20.000000)">
                    <g id="Path-2" transform="translate(0.000000, 3.000000)">
                        <path d="M7.2754581,14.7110279 C7.09409125,14.8965119 6.84664362,15 6.58960359,15 C6.33256356,15 6.08511593,14.8965119 5.90374908,14.7110279 L0.426327599,9.14109062 C-0.1421092,8.56314642 -0.1421092,7.62597378 0.426327599,7.04911325 L1.11218211,6.35160681 C1.68079658,5.77366261 2.60148653,5.77366261 3.16992332,6.35160681 L6.58960359,9.82866363 L15.8300767,0.433458154 C16.3986911,-0.144486051 17.3202693,-0.144486051 17.8878179,0.433458154 L18.5736724,1.13096459 C19.1421092,1.70890879 19.1421092,2.64590079 18.5736724,3.22294197 L7.2754581,14.7110279 Z" id="Path"></path>
                    </g>
                </g>
            </g>
        </g>
    </g>
</svg>