<?xml version="1.0" encoding="UTF-8"?>
<svg width="25px" height="25px" viewBox="0 0 25 25" version="1.1" xmlns="http://www.w3.org/2000/svg" xmlns:xlink="http://www.w3.org/1999/xlink">
    <!-- Generator: Sketch 63.1 (92452) - https://sketch.com -->
    <title>Group 15</title>
    <desc>Created with Sketch.</desc>
    <g id="Page-1" stroke="none" stroke-width="1" fill="none" fill-rule="evenodd">
        <g id="01A" transform="translate(-135.000000, -244.000000)" fill="#FFFFFF" fill-rule="nonzero">
            <g id="Group-15" transform="translate(135.000000, 244.000000)">
                <path d="M6.24438614,16.794664 C6.02109776,16.6112573 5.99806,16.2922137 6.19292985,16.0820602 C6.38779971,15.8719067 6.72678393,15.8502241 6.95007231,16.0336308 C8.49050583,17.2989266 10.3323667,17.9292953 12.5,17.9292953 C14.6676333,17.9292953 16.5094942,17.2989266 18.0499277,16.0336308 C18.2732161,15.8502241 18.6122003,15.8719067 18.8070701,16.0820602 C19.00194,16.2922137 18.9789022,16.6112573 18.7556139,16.794664 C17.0167303,18.2229645 14.9234107,18.9393939 12.5,18.9393939 C10.0765893,18.9393939 7.98326972,18.2229645 6.24438614,16.794664 Z" id="Path"></path>
                <path d="M15.9090909,10.4166667 C15.9090909,10.1028685 16.07868,9.84848485 16.2878788,9.84848485 C16.4970776,9.84848485 16.6666667,10.1028685 16.6666667,10.4166667 L16.6666667,11.5530303 C16.6666667,11.8668285 16.4970776,12.1212121 16.2878788,12.1212121 C16.07868,12.1212121 15.9090909,11.8668285 15.9090909,11.5530303 L15.9090909,10.4166667 Z" id="Path"></path>
                <path d="M8.33333333,10.4166667 C8.33333333,10.1028685 8.50292244,9.84848485 8.71212121,9.84848485 C8.92131998,9.84848485 9.09090909,10.1028685 9.09090909,10.4166667 L9.09090909,11.5530303 C9.09090909,11.8668285 8.92131998,12.1212121 8.71212121,12.1212121 C8.50292244,12.1212121 8.33333333,11.8668285 8.33333333,11.5530303 L8.33333333,10.4166667 Z" id="Path"></path>
                <path d="M1.26262626,11.3636364 C0.983694571,11.3636364 0.757575758,11.1940473 0.757575758,10.9848485 C0.757575758,10.7756497 0.983694571,10.6060606 1.26262626,10.6060606 L4.7979798,10.6060606 C5.07691149,10.6060606 5.3030303,10.7756497 5.3030303,10.9848485 C5.3030303,11.1940473 5.07691149,11.3636364 4.7979798,11.3636364 L1.26262626,11.3636364 Z" id="Path"></path>
                <path d="M11.7424242,11.3636364 C11.5332255,11.3636364 11.3636364,11.1940473 11.3636364,10.9848485 C11.3636364,10.7756497 11.5332255,10.6060606 11.7424242,10.6060606 L13.2575758,10.6060606 C13.4667745,10.6060606 13.6363636,10.7756497 13.6363636,10.9848485 C13.6363636,11.1940473 13.4667745,11.3636364 13.2575758,11.3636364 L11.7424242,11.3636364 Z" id="Path"></path>
                <path d="M20.2020202,11.3636364 C19.9230885,11.3636364 19.6969697,11.1940473 19.6969697,10.9848485 C19.6969697,10.7756497 19.9230885,10.6060606 20.2020202,10.6060606 L23.7373737,10.6060606 C24.0163054,10.6060606 24.2424242,10.7756497 24.2424242,10.9848485 C24.2424242,11.1940473 24.0163054,11.3636364 23.7373737,11.3636364 L20.2020202,11.3636364 Z" id="Path"></path>
                <path d="M9.95670996,7.57575758 C11.1521315,7.57575758 12.1212121,8.59329224 12.1212121,9.84848485 L12.1212121,12.1212121 C12.1212121,13.3764047 11.1521315,14.3939394 9.95670996,14.3939394 L6.70995671,14.3939394 C5.51453517,14.3939394 4.54545455,13.3764047 4.54545455,12.1212121 L4.54545455,9.84848485 C4.54545455,8.59329224 5.51453517,7.57575758 6.70995671,7.57575758 L9.95670996,7.57575758 Z M9.95670996,8.71212121 L6.70995671,8.71212121 C6.11224594,8.71212121 5.62770563,9.22088854 5.62770563,9.84848485 L5.62770563,12.1212121 C5.62770563,12.7488084 6.11224594,13.2575758 6.70995671,13.2575758 L9.95670996,13.2575758 C10.5544207,13.2575758 11.038961,12.7488084 11.038961,12.1212121 L11.038961,9.84848485 C11.038961,9.22088854 10.5544207,8.71212121 9.95670996,8.71212121 Z" id="Combined-Shape"></path>
                <path d="M18.2900433,7.57575758 C19.4854648,7.57575758 20.4545455,8.59329224 20.4545455,9.84848485 L20.4545455,12.1212121 C20.4545455,13.3764047 19.4854648,14.3939394 18.2900433,14.3939394 L15.04329,14.3939394 C13.8478685,14.3939394 12.8787879,13.3764047 12.8787879,12.1212121 L12.8787879,9.84848485 C12.8787879,8.59329224 13.8478685,7.57575758 15.04329,7.57575758 L18.2900433,7.57575758 Z M18.2900433,8.71212121 L15.04329,8.71212121 C14.4455793,8.71212121 13.961039,9.22088854 13.961039,9.84848485 L13.961039,12.1212121 C13.961039,12.7488084 14.4455793,13.2575758 15.04329,13.2575758 L18.2900433,13.2575758 C18.8877541,13.2575758 19.3722944,12.7488084 19.3722944,12.1212121 L19.3722944,9.84848485 C19.3722944,9.22088854 18.8877541,8.71212121 18.2900433,8.71212121 Z" id="Combined-Shape"></path>
                <path d="M12.5,0 C19.4035594,0 25,5.59644063 25,12.5 C25,19.4035594 19.4035594,25 12.5,25 C5.59644063,25 0,19.4035594 0,12.5 C0,5.59644063 5.59644063,0 12.5,0 Z M12.5,1.08695652 C6.19675014,1.08695652 1.08695652,6.19675014 1.08695652,12.5 C1.08695652,18.8032499 6.19675014,23.9130435 12.5,23.9130435 C18.8032499,23.9130435 23.9130435,18.8032499 23.9130435,12.5 C23.9130435,6.19675014 18.8032499,1.08695652 12.5,1.08695652 Z" id="Combined-Shape"></path>
            </g>
        </g>
    </g>
</svg>