<?xml version="1.0" encoding="UTF-8"?>
<svg width="180px" height="29px" viewBox="0 0 180 29" version="1.1" xmlns="http://www.w3.org/2000/svg" xmlns:xlink="http://www.w3.org/1999/xlink">
    <!-- Generator: Sketch 63.1 (92452) - https://sketch.com -->
    <title>Group</title>
    <desc>Created with Sketch.</desc>
    <defs>
        <polygon id="path-1" points="179.975 9.14634146e-05 1.16806294e-13 9.14634146e-05 9.9475983e-14 28.9384146 179.975 28.9384146 179.975 9.14634146e-05"></polygon>
    </defs>
    <g id="Page-1" stroke="none" stroke-width="1" fill="none" fill-rule="evenodd">
        <g id="04-flujo-Cuenta-FAN-(Débito)-" transform="translate(-556.000000, -29.000000)">
            <g id="Group" transform="translate(556.000000, 29.000000)">
                <mask id="mask-2" fill="white">
                    <use xlink:href="#path-1"></use>
                </mask>
                <g id="Clip-2"></g>
                <path d="M7.47469512,-3.55271368e-14 L8.80213415,-3.55271368e-14 C9.76432927,-3.55271368e-14 12.9929878,0.909146341 12.9929878,0.909146341 L13.552439,0.909146341 C13.7692073,0.909146341 14.1182927,0.741768293 14.2506098,0.629573171 C14.3484756,0.657621951 14.4182927,0.678658537 14.5301829,0.769512195 L9.01158537,4.68506098 C9.00457317,4.68506098 7.33506098,5.50640244 7.33506098,6.29359756 L7.33506098,16.152439 L1.88628049,19.9283537 C1.96310976,19.4042683 2.65457317,18.9335366 2.65457317,18.1801829 L2.65457317,8.46097561 C2.65457317,7.70060976 7.89390244,4.97195122 7.89390244,4.19573171 C7.89390244,3.42682927 4.82012195,2.7972561 4.82012195,2.7972561 C3.84207317,2.7625 3.43689024,2.7625 2.44481707,2.7972561 C1.47408537,2.83231707 0.377439024,3.44756098 9.9475983e-14,3.42682927 C1.18780488,2.63628049 4.30091463,-3.55271368e-14 7.47469512,-3.55271368e-14 L7.47469512,-3.55271368e-14 Z M18.6515244,0.210060976 C19.4896341,0.210060976 20,1.11219512 21.4460366,3.0070122 C21.802439,3.47530488 23.4716463,5.5179878 23.4716463,6.50304878 L23.4716463,7.2722561 C23.4716463,9.26310976 18.2323171,11.264939 18.2323171,12.0972561 C18.2323171,12.6634146 20.985061,12.397561 22.2143293,13.2158537 C23.3878049,13.9990854 23.8908537,15.647561 23.8908537,16.5719512 L23.8908537,18.9496951 C23.8908537,20.3853659 21.9420732,20.9073171 19.5597561,22.7253049 C18.5121951,23.5222561 14.9353659,25.9417683 14.670122,25.9417683 C14.670122,25.9417683 10.5832317,23.7042683 8.59237805,23.7042683 L5.93780488,23.7042683 C4.81707317,23.7042683 2.09573171,24.6832317 1.88628049,24.6832317 C1.88628049,24.6832317 5.98231707,20.627439 10.1990854,20.627439 L12.9929878,20.627439 C13.5710366,20.627439 15.5496951,21.4384146 16.067378,21.6067073 L16.067378,3.84603659 C16.067378,3.66890244 15.8435976,3.35640244 15.5082317,3.35640244 C14.732622,3.35640244 14.1810976,4.76920732 14.1810976,4.82530488 L14.1810976,15.3835366 C14.1810976,15.8631098 12.3646341,17.2643293 11.3868902,17.8304878 C9.92682927,18.6768293 8.98384146,19.4881098 8.10365854,19.9283537 L8.10365854,19.7189024 C8.10365854,19.7189024 8.87164634,18.8859756 8.87164634,18.3902439 L8.87164634,6.92286585 C8.87164634,6.78262195 10.1012195,5.24481707 13.4823171,3.28689024 C15.4454268,2.15396341 17.4432927,0.210060976 18.6515244,0.210060976 L18.6515244,0.210060976 Z M17.0448171,5.03506098 L17.0448171,11.3280488 C18.4210366,10.5027439 19.2804878,10.0692073 19.2804878,8.95060976 C19.2804878,7.47530488 17.0448171,5.03506098 17.0448171,5.03506098 L17.0448171,5.03506098 Z M17.0448171,13.2856707 L17.0448171,21.8862805 C17.0448171,22.3143293 17.7926829,22.6557927 18.2323171,22.6557927 C18.4420732,22.6557927 18.1631098,22.8161585 18.5121951,22.6557927 L18.5121951,14.6143293 C18.5121951,14.089939 17.2615854,13.3414634 17.0448171,13.2856707 L17.0448171,13.2856707 Z M70.4088415,10.2786585 L75.3685976,12.7259146 L75.3685976,23.4942073 L70.6884146,25.8015244 L65.6585366,23.6341463 L65.6585366,12.3762195 L70.4088415,10.2786585 Z M68.9073171,12.3762195 L68.8716463,22.0256098 L72.154878,23.4942073 L72.154878,13.914939 L68.9073171,12.3762195 Z M47.4960366,9.95823171 L50.4996951,12.964939 L50.4996951,22.195122 L51.8969512,23.5932927 L49.5914634,25.8307927 L47.1466463,23.5231707 L47.1466463,14.9228659 C47.1045732,14.8948171 45.6167683,13.4128049 45.3304878,13.314939 L43.6539634,14.8527439 L43.6539634,22.2643293 L44.9112805,23.5231707 L42.5362805,25.8307927 L40.3707317,23.7329268 L40.3707317,14.4335366 C40.3707317,14.4335366 39.3439024,13.5734756 38.9036585,13.035061 L41.8371951,10.0283537 L44.7018293,12.7551829 L47.4960366,9.95823171 Z M59.0222561,10.3484756 L64.4707317,12.6557927 C64.2195122,12.9704268 62.5570122,14.1875 61.9564024,14.3341463 C61.9564024,14.3341463 57.5064024,12.5932927 57.4155488,12.5862805 L57.4155488,21.6762195 L61.160061,23.5396341 C61.160061,23.5396341 63.3182927,22.795122 63.842378,22.795122 C63.8981707,22.795122 63.9960366,22.8158537 64.1219512,22.795122 L64.1219512,23.0045732 L59.8603659,25.8015244 L59.3015244,25.8015244 L53.922561,23.3542683 L53.922561,12.7957317 L59.0222561,10.3484756 Z M31.4987805,10.0981707 C34.8939024,11.7972561 36.3887195,11.9929878 36.3887195,12.7551829 L36.3887195,21.7051829 L38.5539634,23.8731707 L36.5283537,25.8307927 C35.047561,24.6213415 34.5027439,24.0829268 34.5027439,24.0829268 L30.7795732,25.95 L25.7006098,23.6192073 L25.7006098,17.7198171 L30.6603659,15.272561 L33.3847561,16.3914634 L33.3847561,13.9442073 L29.0341463,12.4304878 L26.8503049,12.6942073 L26.7484756,12.3356707 L31.4987805,10.0981707 Z M28.7743902,17.3006098 L28.7743902,21.7987805 L33.3847561,23.9429878 L33.3847561,19.6134146 L28.7743902,17.3006098 Z M92.4182927,3.7820122 C92.6277439,3.7820122 93.55,4.13871951 95.0728659,4.90060976 C95.8969512,5.31341463 97.3780488,5.61310976 97.3780488,6.36920732 L97.3780488,23.7103659 L92.7670732,25.877439 L87.6679878,23.4304878 L87.6679878,12.4521341 L92.5579268,10.2847561 C92.732622,10.3057927 94.3039634,10.9137195 94.3039634,10.9137195 L94.3039634,7.4179878 L90.2262195,5.67469512 C89.5628049,5.71676829 88.7792683,6.35152439 87.982622,6.49146341 L88.1570122,5.8097561 C88.1570122,5.8097561 91.8314024,3.7820122 92.4182927,3.7820122 L92.4182927,3.7820122 Z M90.8814024,12.3823171 L90.8814024,22.0320122 L94.1640244,23.5003049 L94.2347561,13.9207317 L90.8814024,12.3823171 Z M105.341159,10.214939 L109.882012,15.2493902 L103.245732,20.1439024 L103.245732,21.472561 C103.245732,21.7551829 107.156098,23.5396341 107.156098,23.5396341 C107.156098,23.5396341 109.094207,22.2125 109.951829,22.7307927 C109.903049,22.7942073 105.271341,25.8073171 105.271341,25.8073171 L100.31189,23.639939 L100.31189,12.592378 L105.341159,10.214939 Z M103.315244,12.592378 L103.315244,18.5375 L106.645732,16.0875 L103.315244,12.592378 Z M166.32561,22.3262195 L167.582012,23.514939 L165.067988,25.8926829 L162.692683,23.514939 L162.692683,7.43292683 L166.32561,3.86707317 L166.32561,22.3262195 Z M146.975,3.48689024 L146.975,13.5554878 L150.607317,9.98963415 L153.332012,12.7164634 L153.332012,25.5823171 L149.909451,28.9384146 L149.839024,14.4643293 L148.51189,13.2057927 L146.975,14.5344512 L146.975,22.1560976 L148.302134,23.4146341 L145.857317,25.9320122 L143.482317,23.554878 L143.482317,6.9125 L146.975,3.48689024 Z M157.383537,3.41676829 L159.828049,5.79390244 L157.383537,8.31128049 L154.93872,5.86371951 L157.383537,3.41676829 Z M174.567988,10.3698171 C174.700915,10.3698171 179.109146,15.2015244 179.178049,15.4042683 L172.542378,20.0893293 L172.542378,21.9771341 L176.303354,23.6792683 C176.303354,23.6792683 178.277744,23.417378 178.969207,22.8161585 L179.975,23.0667683 C179.890854,23.1926829 175.357012,25.9625 174.567988,25.9625 C174.393598,25.9625 171.0125,24.6618902 169.607927,23.725 L169.607927,13.0271341 C169.607927,12.5445122 174.554268,10.3698171 174.567988,10.3698171 L174.567988,10.3698171 Z M172.6125,12.7472561 L172.631707,18.0646341 L175.793598,16.0231707 L172.6125,12.7472561 Z M157.453963,9.98963415 L159.689329,12.1570122 L159.689329,22.0862805 L161.016463,23.3445122 L158.50122,25.7920732 L156.125915,23.4146341 L156.125915,13.4856707 L155.008232,12.4368902 L157.453963,9.98963415 Z M133.459146,1.62317073 L133.73872,1.62317073 C133.515549,2.18993902 129.746341,4.00640244 128.289634,5.67896341 C126.052134,8.24939024 124.547866,9.6847561 124.797866,13.6935976 C124.943293,16.0243902 126.780793,19.4746951 128.919207,20.7121951 C129.575305,21.089939 131.657012,22.2365854 133.59878,22.3204268 C135.888415,22.4222561 135.586585,22.0710366 135.606707,22.0518293 L135.712195,5.18262195 C135.712195,4.96890244 135.198476,3.86097561 134.716768,3.86097561 C134.576829,3.86097561 134.367073,4.11920732 134.367073,4.28018293 L134.367073,15.9573171 C134.367073,16.3984756 133.962195,17.020122 131.992378,18.335061 C129.97378,19.6771341 129.352134,20.1317073 129.128049,20.082622 C129.177134,19.9570122 129.484146,19.4957317 129.617073,19.3835366 L129.617073,7.21707317 C129.617073,6.00609756 131.370732,5.30823171 132.900305,4.14054878 C135.422256,2.21067073 136.784756,1.76310976 136.812195,1.76310976 L137.441463,1.76310976 C139.115244,1.76310976 140.165244,3.79054878 140.375305,4.00060976 C140.389024,4.01463415 140.857012,4.17530488 141.003659,4.35030488 L141.981402,4.35030488 C142.264024,4.35030488 142.960366,3.93079268 143.378963,4.00060976 C142.247561,4.98658537 138.642378,7.28689024 138.559146,7.28689024 L138,7.28689024 C137.740854,7.28689024 137.343293,6.88841463 136.882317,6.65792683 L136.882317,21.9006098 C137.077744,21.9286585 137.050305,21.9006098 137.161585,21.9006098 C137.846341,21.9006098 140.389024,20.0618902 140.514634,19.8731707 L140.725,19.8731707 L140.725,20.3625 L139.676829,22.3204268 C137.496951,24.8164634 135.05122,26.0487805 131.565549,26.0753049 C125.4625,26.1219512 121.139329,21.6981707 120.67561,14.8384146 C120.214024,8.01219512 125.016463,2.40396341 130.664939,2.04268293 C131.48872,1.9902439 132.495427,2.04969512 132.621037,2.04268293 C132.621037,2.04268293 133.396341,1.67195122 133.459146,1.62317073 L133.459146,1.62317073 Z" id="Fill-1" fill="#FFFFFF" mask="url(#mask-2)"></path>
            </g>
        </g>
    </g>
</svg>