<?xml version="1.0" encoding="UTF-8"?>
<svg width="28px" height="25px" viewBox="0 0 28 25" version="1.1" xmlns="http://www.w3.org/2000/svg" xmlns:xlink="http://www.w3.org/1999/xlink">
    <!-- Generator: Sketch 63.1 (92452) - https://sketch.com -->
    <title>Group 8</title>
    <desc>Created with Sketch.</desc>
    <g id="Page-1" stroke="none" stroke-width="1" fill="none" fill-rule="evenodd">
        <g id="04C-Mensajería-Alerta" transform="translate(-444.000000, -744.000000)" fill="#FFFFFF" fill-rule="nonzero">
            <g id="Group-10" transform="translate(444.000000, 744.000000)">
                <g id="Group-8">
                    <path d="M27.5536283,20.0853343 L16.8513159,1.63822191 C16.2562082,0.612469251 15.1902973,0 13.9999727,0 C12.8097027,0 11.7437371,0.612469251 11.1486294,1.63822191 L0.446371739,20.0852798 C-0.14879058,21.1111413 -0.14879058,22.335971 0.446371739,23.3617781 C1.04153406,24.3875852 2.10739031,25 3.29771495,25 L24.7022304,25 C25.8925003,25 26.9584113,24.3875307 27.5536283,23.3618325 C28.1487906,22.335971 28.1487906,21.1111413 27.5536283,20.0853343 Z M26.1329605,22.5456059 C25.834313,23.0603326 25.2994708,23.3676013 24.7022304,23.3676013 L3.29771495,23.3676013 C2.70041982,23.3676013 2.16557764,23.0603326 1.86698476,22.5456059 C1.56839189,22.0308792 1.56839189,21.4163419 1.86698476,20.9016153 L12.5693518,2.45450291 C12.8679447,1.93977622 13.4027869,1.63250756 14.0000273,1.63250756 C14.5972131,1.63250756 15.13211,1.93977622 15.4307028,2.45450291 L26.1330152,20.9016153 C26.4315534,21.4163419 26.4315534,22.0308792 26.1329605,22.5456059 Z" id="Shape"></path>
                    <rect id="Rectangle" x="13" y="8" width="2" height="8"></rect>
                    <path d="M14,18 C13.4485949,18 13,18.4485949 13,19 C13,19.5514051 13.4485949,20 14,20 C14.5513551,20 15,19.5514051 15,19 C15,18.4485949 14.5514051,18 14,18 Z" id="Path"></path>
                </g>
            </g>
        </g>
    </g>
</svg>